<svg id="visual" viewBox="0 0 900 600" width="900" height="600" xmlns="http://www.w3.org/2000/svg" xmlns:xlink="http://www.w3.org/1999/xlink" version="1.1"><rect x="0" y="0" width="900" height="600" fill="#cc913a"></rect><defs><linearGradient id="grad1_0" x1="33.3%" y1="0%" x2="100%" y2="100%"><stop offset="20%" stop-color="#fbae3c" stop-opacity="1"></stop><stop offset="80%" stop-color="#fbae3c" stop-opacity="1"></stop></linearGradient></defs><defs><linearGradient id="grad1_1" x1="33.3%" y1="0%" x2="100%" y2="100%"><stop offset="20%" stop-color="#fbae3c" stop-opacity="1"></stop><stop offset="80%" stop-color="#eba43b" stop-opacity="1"></stop></linearGradient></defs><defs><linearGradient id="grad1_2" x1="33.3%" y1="0%" x2="100%" y2="100%"><stop offset="20%" stop-color="#db9b3b" stop-opacity="1"></stop><stop offset="80%" stop-color="#eba43b" stop-opacity="1"></stop></linearGradient></defs><defs><linearGradient id="grad1_3" x1="33.3%" y1="0%" x2="100%" y2="100%"><stop offset="20%" stop-color="#db9b3b" stop-opacity="1"></stop><stop offset="80%" stop-color="#cc913a" stop-opacity="1"></stop></linearGradient></defs><defs><linearGradient id="grad2_0" x1="0%" y1="0%" x2="66.7%" y2="100%"><stop offset="20%" stop-color="#fbae3c" stop-opacity="1"></stop><stop offset="80%" stop-color="#fbae3c" stop-opacity="1"></stop></linearGradient></defs><defs><linearGradient id="grad2_1" x1="0%" y1="0%" x2="66.7%" y2="100%"><stop offset="20%" stop-color="#eba43b" stop-opacity="1"></stop><stop offset="80%" stop-color="#fbae3c" stop-opacity="1"></stop></linearGradient></defs><defs><linearGradient id="grad2_2" x1="0%" y1="0%" x2="66.7%" y2="100%"><stop offset="20%" stop-color="#eba43b" stop-opacity="1"></stop><stop offset="80%" stop-color="#db9b3b" stop-opacity="1"></stop></linearGradient></defs><defs><linearGradient id="grad2_3" x1="0%" y1="0%" x2="66.7%" y2="100%"><stop offset="20%" stop-color="#cc913a" stop-opacity="1"></stop><stop offset="80%" stop-color="#db9b3b" stop-opacity="1"></stop></linearGradient></defs><g transform="translate(900, 0)"><path d="M0 324.5C-53.5 310.9 -106.9 297.3 -157 271.9C-207.1 246.6 -253.7 209.5 -281 162.2C-308.4 115 -316.4 57.5 -324.5 0L0 0Z" fill="#d4963a"></path><path d="M0 243.4C-40.1 233.2 -80.2 223 -117.7 203.9C-155.3 184.9 -190.3 157.1 -210.8 121.7C-231.3 86.2 -237.3 43.1 -243.4 0L0 0Z" fill="#e39f3b"></path><path d="M0 162.2C-26.7 155.4 -53.5 148.6 -78.5 136C-103.5 123.3 -126.8 104.8 -140.5 81.1C-154.2 57.5 -158.2 28.7 -162.2 0L0 0Z" fill="#f3a93c"></path><path d="M0 81.1C-13.4 77.7 -26.7 74.3 -39.2 68C-51.8 61.6 -63.4 52.4 -70.3 40.6C-77.1 28.7 -79.1 14.4 -81.1 0L0 0Z" fill="#fbae3c"></path></g><g transform="translate(0, 600)"><path d="M0 -324.5C55.6 -314.6 111.2 -304.7 161 -278.9C210.8 -253.1 254.7 -211.4 281 -162.2C307.3 -113.1 315.9 -56.6 324.5 0L0 0Z" fill="#d4963a"></path><path d="M0 -243.4C41.7 -235.9 83.4 -228.5 120.7 -209.1C158.1 -189.8 191.1 -158.5 210.8 -121.7C230.5 -84.8 236.9 -42.4 243.4 0L0 0Z" fill="#e39f3b"></path><path d="M0 -162.2C27.8 -157.3 55.6 -152.3 80.5 -139.4C105.4 -126.5 127.4 -105.7 140.5 -81.1C153.7 -56.6 158 -28.3 162.2 0L0 0Z" fill="#f3a93c"></path><path d="M0 -81.1C13.9 -78.6 27.8 -76.2 40.2 -69.7C52.7 -63.3 63.7 -52.8 70.3 -40.6C76.8 -28.3 79 -14.1 81.1 0L0 0Z" fill="#fbae3c"></path></g></svg>